<svg width="1432" height="261" viewBox="0 0 1432 261" fill="none" xmlns="http://www.w3.org/2000/svg">
<path d="M354.331 69.191C391.803 69.1911 410.871 90.1997 410.871 113.283C410.871 167.686 329.123 182.503 289.614 187.323C288.581 187.666 288.242 188.009 288.581 189.039C294.721 222.104 315.147 243.8 353.313 243.8C389.073 243.8 403.035 222.104 410.192 222.104C412.244 222.104 412.923 223.135 412.923 225.209C412.922 232.431 387.035 260.676 347.852 260.676C298.085 260.676 265.778 226.969 265.778 169.074C265.779 110.523 303.251 69.191 354.331 69.191ZM1402.61 1.35603C1412.84 -2.77718 1414.54 3.07259 1414.54 11.6822V232.085C1414.54 243.111 1416.57 248.961 1429.52 249.304C1433.27 249.304 1432.25 253.78 1429.87 255.511C1425.44 258.257 1420.32 258.943 1413.52 258.943C1400.58 258.943 1396.49 251.035 1396.15 233.816V227.265C1396.15 225.893 1395.47 225.549 1394.77 226.579C1388.3 237.016 1379.31 245.62 1368.64 251.584C1357.98 257.547 1345.99 260.675 1333.81 260.674C1294.3 260.674 1258.86 226.579 1258.86 170.445C1258.86 108.104 1294.64 69.5318 1340.96 69.5318C1363.78 69.5319 1383.2 79.1861 1394.77 93.9879C1395.79 95.0174 1396.49 94.6745 1396.49 93.6451V53.0142C1396.49 23.7386 1396.49 23.7381 1387.29 15.1285C1383.54 12.0249 1383.88 9.62244 1388.65 7.54841L1402.61 1.35603ZM505.331 69.5308C542.124 68.8446 568.011 88.1376 568.011 136.676V232.069C568.011 243.096 570.048 248.944 582.991 249.288C586.74 249.288 585.721 253.765 583.33 255.496C578.903 258.241 573.796 258.927 566.992 258.927C554.049 258.927 549.961 251.019 549.607 233.799V226.219C549.606 224.832 548.589 224.489 548.249 225.533C535.645 247.572 514.186 260.658 486.942 260.658C455.934 260.673 430.386 241.379 430.386 209.358C430.386 161.491 485.569 139.452 548.588 127.052C548.929 126.926 549.216 126.685 549.402 126.37C549.587 126.055 549.659 125.685 549.607 125.322C547.909 103.283 538.376 82.617 505.331 82.6168C467.18 82.6168 470.249 126.023 449.469 126.023C444.023 126.023 439.935 121.889 439.935 114.996C439.935 96.7469 465.143 69.8889 505.331 69.5308ZM925.61 68.5035C945.371 68.5035 979.435 77.1133 979.435 131.875V232.086C979.435 243.112 982.829 244.829 993.735 243.799C998.842 243.113 997.484 247.246 995.433 249.992C992.717 254.125 985.22 258.944 977.044 258.944C965.798 258.944 961.71 252.752 961.37 239.666V130.502C961.37 98.8087 948.087 83.32 920.843 83.3199C899.723 83.3199 872.819 100.882 872.818 138.066V216.597C872.464 239.322 872.818 239.323 883.37 250.693C885.422 253.095 884.728 257.228 879.961 257.228H847.61C842.829 257.228 842.15 253.095 844.201 250.693C854.754 239.323 854.753 239.322 854.753 216.597V130.502C854.753 98.8086 841.47 83.3199 814.226 83.3199C793.106 83.3201 766.201 100.883 766.201 138.066V216.597C765.847 239.322 766.202 239.323 776.754 250.693C778.805 253.095 778.111 257.228 773.345 257.228H741.008C736.226 257.228 735.548 253.095 737.599 250.693C748.151 239.323 748.152 239.322 748.152 216.597V121.548C748.152 96.063 747.472 96.063 738.617 85.3795C735.208 81.9326 735.548 79.5303 740.669 77.7994L755.649 71.607C759.397 69.8911 764.164 71.6068 764.164 77.4556V96.4058C764.164 97.7786 765.183 98.1219 765.861 97.0924C778.82 77.4559 797.888 68.5035 818.993 68.5035C834.328 68.5036 857.823 73.6661 868.036 100.882C868.376 102.255 869.069 102.255 869.748 101.226C882.691 78.501 903.132 68.5035 925.61 68.5035ZM1172.32 68.5035C1195.13 68.5036 1232.94 78.5007 1232.94 138.066L1233.28 232.071C1233.28 243.098 1236.69 244.813 1247.59 243.784C1252.71 243.097 1251.33 247.231 1249.3 249.976C1246.57 254.109 1239.07 258.929 1230.89 258.929C1219.66 258.929 1215.57 252.737 1215.23 239.651V138.753C1215.23 102.255 1198.54 83.3199 1168.57 83.3199C1140.97 83.3199 1111.01 100.882 1111.01 138.066V216.597C1110.67 239.322 1111.01 239.323 1121.58 250.693C1123.61 253.095 1122.93 257.228 1118.17 257.228H1085.8C1081.02 257.228 1080.34 253.095 1082.39 250.693C1092.94 239.323 1092.94 239.322 1092.94 216.597V121.548C1092.94 96.0631 1092.27 96.0628 1083.41 85.3795C1080 81.9327 1080.34 79.5303 1085.45 77.7994L1100.44 71.607C1104.19 69.8911 1108.96 71.6068 1108.96 77.4556V98.1217C1108.96 99.1512 1109.98 99.8378 1110.65 98.8082C1125.31 78.5004 1147.11 68.5035 1172.32 68.5035ZM38.4952 11.7574C43.2621 11.7574 43.9409 15.8899 41.9044 18.3072C31.3372 29.6623 31.337 29.6631 31.337 52.3883V155.017C31.3371 156.046 32.0309 156.405 33.049 155.704C64.3815 122.653 97.0867 87.8711 114.118 65.4742C131.829 43.0923 144.772 32.08 136.257 20.3668C134.56 17.2631 135.239 11.7574 139.666 11.7574H175.766C180.193 11.7575 180.887 16.5765 178.156 18.9937C166.571 31.7365 162.482 35.1683 154.646 43.7779L95.7296 107.836C95.3754 108.522 95.036 109.223 95.7296 109.91C126.723 141.931 154.646 189.456 168.962 226.296C172.675 234.865 177.733 242.771 183.942 249.708C186.332 252.468 185.654 257.288 180.193 257.288H145.51C140.743 257.287 140.064 252.468 142.441 249.708C149.938 239.382 147.901 235.249 145.85 226.983C134.958 192.545 106.341 150.182 81.8116 125.04C81.6936 124.879 81.5401 124.749 81.3634 124.659C81.1866 124.569 80.9909 124.523 80.7931 124.523C80.5954 124.523 80.4004 124.569 80.2238 124.659C80.0471 124.749 79.8936 124.879 79.7755 125.04L32.09 176.981C31.6604 177.455 31.4144 178.069 31.3966 178.712V216.597C31.0572 239.322 31.3958 239.323 41.963 250.693C43.9997 253.095 43.3209 257.228 38.5538 257.228H4.54993C-0.275825 257.228 -0.954365 253.095 1.08215 250.693C11.6494 239.323 11.6495 239.322 11.6495 216.597V52.3883C11.989 29.6631 11.6494 29.6623 1.08215 18.3072C-0.954417 15.8899 -0.27564 11.7574 4.49133 11.7574H38.4952ZM1034.54 72.6392C1044.75 68.506 1046.46 74.3705 1046.46 82.9801V216.601C1046.12 239.326 1046.46 239.326 1057.01 250.696C1059.07 253.098 1058.39 257.231 1053.61 257.231H1021.26C1016.49 257.231 1015.81 253.098 1017.85 250.696C1028.41 239.326 1028.41 239.326 1028.41 216.601V124.297C1028.41 95.0218 1028.41 95.0213 1019.2 86.4117C1015.45 83.3231 1015.81 80.9063 1020.58 78.8472L1034.54 72.6392ZM682.444 69.191C704.582 69.191 719.917 83.6641 719.917 100.197C719.917 107.419 715.49 113.969 709.011 113.969C690.961 113.969 702.886 87.111 675.981 87.1109C652.809 87.1109 634.42 115.686 634.42 141.171V216.598C634.081 239.323 634.42 239.324 644.973 250.694C647.024 253.096 646.345 257.229 641.578 257.229H609.212C604.445 257.229 603.752 253.096 605.803 250.694C616.37 239.324 616.37 239.323 616.37 216.598V121.549C616.37 96.0641 615.691 96.064 606.821 85.3804C603.427 81.9336 603.767 79.5312 608.873 77.8004L623.853 71.608C627.601 69.8921 632.368 71.6078 632.368 77.4566V101.227C632.368 102.6 633.402 102.943 634.081 101.57C643.955 82.9781 662.343 69.1911 682.444 69.191ZM225.93 1.35603C236.142 -2.77677 237.855 3.07274 237.855 11.6822V216.596C237.515 239.321 237.854 239.322 248.406 250.692C250.458 253.094 249.779 257.227 244.997 257.227H213.001C208.219 257.227 207.555 253.094 209.592 250.692C220.159 239.322 220.158 239.321 220.158 216.596L219.805 53.0142C219.805 23.7386 219.804 23.7381 210.609 15.1285C206.861 12.025 207.216 9.62242 211.983 7.54841L225.93 1.35603ZM1341.98 81.9312C1306.22 81.9314 1279.64 109.491 1279.64 166.655C1279.7 210.389 1297.41 246.558 1338.91 246.558V246.544C1365.48 246.543 1396.15 223.804 1396.15 180.413V132.559C1396.15 102.941 1369.92 81.9312 1341.98 81.9312ZM549.961 140.825C549.961 140.138 548.928 139.795 547.231 140.138C486.941 152.538 450.487 174.577 450.487 207.285C450.488 226.235 464.11 244.483 489.657 244.483C520.65 244.483 549.961 222.788 549.961 170.444V140.825ZM352.176 82.6344C316.076 82.6345 286.102 113.97 286.102 163.912C286.046 166.895 286.158 169.879 286.441 172.849C286.441 173.55 286.781 174.237 287.799 173.894C320.844 169.761 388.97 157.704 388.97 115.701C388.97 96.0792 378.077 82.6344 352.176 82.6344ZM1033.86 5.8365C1036.05 5.77003 1038.23 6.14827 1040.27 6.9488C1042.31 7.74938 1044.17 8.95654 1045.74 10.4976C1047.31 12.0386 1048.56 13.8827 1049.41 15.9205C1050.26 17.9584 1050.7 20.1491 1050.7 22.3619C1050.7 24.5747 1050.26 26.7653 1049.41 28.8033C1048.56 30.8413 1047.31 32.6861 1045.74 34.2271C1044.17 35.7682 1042.31 36.9744 1040.27 37.775C1038.23 38.5755 1036.05 38.9538 1033.86 38.8873C1023.99 38.8872 1016.83 32.0089 1016.83 22.3551C1016.83 12.701 1023.99 5.8366 1033.86 5.8365Z" fill="#32140C"/>
</svg>
